<?xml version="1.0" encoding="iso-8859-1"?>
<!-- Generator: Adobe Illustrator 19.0.0, SVG Export Plug-In . SVG Version: 6.00 Build 0)  -->
<svg xmlns="http://www.w3.org/2000/svg" xmlns:xlink="http://www.w3.org/1999/xlink" version="1.1" id="Layer_1" x="0px" y="0px" viewBox="0 0 455 455" style="enable-background:new 0 0 455 455;" xml:space="preserve" width="512px" height="512px">
<g>
	<path d="M110.748,287.48l44.169,44.169l176.732-176.732l-44.169-44.169L398.229,0c0,0,52.924,48.686,56.483,87.302   c4.763,51.688-49.95,145.662-135.849,231.562c-85.899,85.898-179.873,140.611-231.56,135.849C48.687,451.152,0,398.229,0,398.229   L110.748,287.48z" fill="#a12024"/>
	<path d="M42.117,202.117h-30c0-104.766,85.234-190,190-190v30C113.893,42.117,42.117,113.893,42.117,202.117z" fill="#a12024"/>
	<path d="M112.117,202.117h-30c0-66.168,53.832-120,120-120v30C152.491,112.117,112.117,152.491,112.117,202.117z" fill="#a12024"/>
</g>
<g>
</g>
<g>
</g>
<g>
</g>
<g>
</g>
<g>
</g>
<g>
</g>
<g>
</g>
<g>
</g>
<g>
</g>
<g>
</g>
<g>
</g>
<g>
</g>
<g>
</g>
<g>
</g>
<g>
</g>
</svg>
