<?xml version="1.0" encoding="iso-8859-1"?>
<!-- Generator: Adobe Illustrator 16.0.0, SVG Export Plug-In . SVG Version: 6.00 Build 0)  -->
<!DOCTYPE svg PUBLIC "-//W3C//DTD SVG 1.1//EN" "http://www.w3.org/Graphics/SVG/1.1/DTD/svg11.dtd">
<svg xmlns="http://www.w3.org/2000/svg" xmlns:xlink="http://www.w3.org/1999/xlink" version="1.1" id="Capa_1" x="0px" y="0px" width="512px" height="512px" viewBox="0 0 30 30" style="enable-background:new 0 0 30 30;" xml:space="preserve">
<g>
	<path d="M15,0C6.715,0,0,6.715,0,15s6.715,15,15,15s15-6.715,15-15S23.285,0,15,0z M20.021,11.314h-0.793v1.58   c0,0.667-0.364,1.286-0.711,1.645c-0.062,0.057-2.644,2.504-2.644,2.504c-0.105,0.131-0.181,0.332-0.184,0.518v4.082   c0.927,0.297,1.583,1.172,1.583,2.166c0,1.25-1.021,2.271-2.275,2.271s-2.273-1.021-2.273-2.271c0-0.994,0.655-1.869,1.581-2.166   v-1.135c-0.003-0.179-0.077-0.379-0.211-0.544c-0.003,0-2.551-2.412-2.604-2.461l-0.149-0.138l0.006-0.021   c-0.301-0.369-0.584-0.912-0.584-1.494v-2.957c-0.479-0.253-0.791-0.754-0.791-1.304c0-0.817,0.666-1.482,1.483-1.482   s1.483,0.665,1.483,1.482c0,0.55-0.313,1.051-0.791,1.304v2.98c0.004,0.178,0.079,0.378,0.212,0.542l1.946,1.84V7.181h-1.189   L15,3.921l1.881,3.26h-1.189v8.122l1.975-1.872c0.104-0.132,0.181-0.333,0.185-0.519v-1.598h-0.791V8.352h2.963v2.962H20.021z" fill="#b52024"/>
</g>
<g>
</g>
<g>
</g>
<g>
</g>
<g>
</g>
<g>
</g>
<g>
</g>
<g>
</g>
<g>
</g>
<g>
</g>
<g>
</g>
<g>
</g>
<g>
</g>
<g>
</g>
<g>
</g>
<g>
</g>
</svg>
