<?xml version="1.0" encoding="iso-8859-1"?>
<!-- Generator: Adobe Illustrator 18.0.0, SVG Export Plug-In . SVG Version: 6.00 Build 0)  -->
<!DOCTYPE svg PUBLIC "-//W3C//DTD SVG 1.1//EN" "http://www.w3.org/Graphics/SVG/1.1/DTD/svg11.dtd">
<svg xmlns="http://www.w3.org/2000/svg" xmlns:xlink="http://www.w3.org/1999/xlink" version="1.1" id="Capa_1" x="0px" y="0px" viewBox="0 0 297.384 297.384" style="enable-background:new 0 0 297.384 297.384;" xml:space="preserve" width="512px" height="512px">
<g>
	<path d="M265.53,78.112c-0.014-0.134-0.037-0.266-0.06-0.397c-0.008-0.045-0.013-0.091-0.02-0.135   c-0.031-0.156-0.072-0.31-0.116-0.462c-0.006-0.019-0.009-0.038-0.015-0.058c-0.047-0.152-0.102-0.303-0.162-0.45   c-0.007-0.018-0.012-0.037-0.02-0.055c-0.058-0.139-0.124-0.274-0.193-0.408c-0.013-0.025-0.023-0.053-0.037-0.077   c-0.064-0.122-0.139-0.239-0.212-0.355c-0.022-0.035-0.042-0.072-0.065-0.106c-0.07-0.106-0.149-0.207-0.228-0.308   c-0.032-0.041-0.06-0.085-0.093-0.124c-0.096-0.117-0.199-0.228-0.305-0.337c-0.02-0.02-0.035-0.041-0.055-0.061L190.776,1.608   V1.607c-0.127-0.127-0.261-0.247-0.398-0.36c-0.03-0.025-0.063-0.047-0.094-0.07c-0.111-0.087-0.223-0.173-0.338-0.25   c-0.028-0.02-0.059-0.035-0.087-0.053c-0.123-0.079-0.247-0.156-0.376-0.225c-0.018-0.01-0.038-0.018-0.057-0.027   c-0.141-0.073-0.283-0.143-0.43-0.203c-0.008-0.004-0.018-0.006-0.025-0.01c-0.157-0.065-0.316-0.122-0.479-0.172   c-0.007-0.002-0.014-0.002-0.02-0.004c-0.164-0.05-0.331-0.092-0.5-0.126c-0.021-0.005-0.044-0.006-0.065-0.011   c-0.154-0.028-0.31-0.054-0.468-0.069c-0.1-0.01-0.201-0.011-0.303-0.015C187.057,0.009,186.977,0,186.895,0   c-0.002,0-0.003,0-0.005,0H37.315c-3.031,0-5.488,2.457-5.488,5.488v286.408c0,3.03,2.457,5.487,5.488,5.487h222.754   c3.031,0,5.488-2.457,5.488-5.487V78.66l0,0v-0.001c0-0.007-0.002-0.015-0.002-0.021C265.555,78.46,265.546,78.285,265.53,78.112z    M246.822,73.174l-54.435,0.006l-0.004-54.442L246.822,73.174z M254.581,286.409H42.802V10.976h138.605l0.004,67.693   c0,1.455,0.578,2.852,1.607,3.88c1.029,1.029,2.426,1.607,3.881,1.607l67.682-0.008V286.409z" fill="#b52024"/>
	<path d="M112.038,76.817c12.582,0,22.817-10.238,22.817-22.823c0-12.585-10.235-22.823-22.817-22.823   c-12.583,0-22.82,10.238-22.82,22.823C89.217,66.579,99.455,76.817,112.038,76.817z M112.038,42.146   c6.529,0,11.842,5.315,11.842,11.849c0,6.532-5.313,11.848-11.842,11.848c-6.531,0-11.844-5.315-11.844-11.848   C100.194,47.461,105.506,42.146,112.038,42.146z" fill="#b52024"/>
	<path d="M86.541,118.47c3.031,0,5.488-2.457,5.488-5.487v-9.626c0-6.222,5.064-11.283,11.286-11.283h17.582   c6.226,0,11.291,5.062,11.291,11.283v9.626c0,3.03,2.456,5.487,5.487,5.487c3.031,0,5.488-2.457,5.488-5.487v-9.626   c0-12.273-9.988-22.258-22.267-22.258h-17.582c-12.275,0-22.262,9.984-22.262,22.258v9.626   C81.054,116.013,83.511,118.47,86.541,118.47z" fill="#b52024"/>
	<path d="M81.054,157.2c0,3.03,2.457,5.487,5.487,5.487h124.305c3.031,0,5.488-2.457,5.488-5.487c0-3.031-2.457-5.488-5.488-5.488   H86.541C83.511,151.712,81.054,154.169,81.054,157.2z" fill="#b52024"/>
	<path d="M210.846,232.915H86.541c-3.03,0-5.487,2.457-5.487,5.488c0,3.031,2.457,5.488,5.487,5.488h124.305   c3.031,0,5.488-2.457,5.488-5.488C216.335,235.372,213.877,232.915,210.846,232.915z" fill="#b52024"/>
	<path d="M210.846,192.313H86.541c-3.03,0-5.487,2.457-5.487,5.488c0,3.031,2.457,5.488,5.487,5.488h124.305   c3.031,0,5.488-2.457,5.488-5.488C216.335,194.77,213.877,192.313,210.846,192.313z" fill="#b52024"/>
</g>
<g>
</g>
<g>
</g>
<g>
</g>
<g>
</g>
<g>
</g>
<g>
</g>
<g>
</g>
<g>
</g>
<g>
</g>
<g>
</g>
<g>
</g>
<g>
</g>
<g>
</g>
<g>
</g>
<g>
</g>
</svg>
